<svg width="73" height="73" viewBox="0 0 73 73" fill="none" xmlns="http://www.w3.org/2000/svg">
<g filter="url(#filter0_dd_6626_6600)">
<rect x="10" y="6" width="53" height="53" rx="26.5" fill="url(#paint0_linear_6626_6600)"/>
<path d="M39.5 28.5C39.5 25.7386 37.2614 23.5 34.5 23.5C31.7386 23.5 29.5 25.7386 29.5 28.5C29.5 31.2614 31.7386 33.5 34.5 33.5C37.2614 33.5 39.5 31.2614 39.5 28.5Z" stroke="#27E6A7" stroke-width="2" stroke-linecap="round" stroke-linejoin="round"/>
<path d="M42 41.5V34.5M38.5 38H45.5" stroke="#27E6A7" stroke-width="2" stroke-linecap="round" stroke-linejoin="round"/>
<path d="M27.5 40.5C27.5 36.634 30.634 33.5 34.5 33.5C35.9872 33.5 37.3662 33.9638 38.5 34.7547" stroke="#27E6A7" stroke-width="2" stroke-linecap="round" stroke-linejoin="round"/>
</g>
<defs>
<filter id="filter0_dd_6626_6600" x="0" y="0" width="73" height="73" filterUnits="userSpaceOnUse" color-interpolation-filters="sRGB">
<feFlood flood-opacity="0" result="BackgroundImageFix"/>
<feColorMatrix in="SourceAlpha" type="matrix" values="0 0 0 0 0 0 0 0 0 0 0 0 0 0 0 0 0 0 127 0" result="hardAlpha"/>
<feOffset dy="1"/>
<feGaussianBlur stdDeviation="1"/>
<feColorMatrix type="matrix" values="0 0 0 0 0 0 0 0 0 0 0 0 0 0 0 0 0 0 0.3 0"/>
<feBlend mode="normal" in2="BackgroundImageFix" result="effect1_dropShadow_6626_6600"/>
<feColorMatrix in="SourceAlpha" type="matrix" values="0 0 0 0 0 0 0 0 0 0 0 0 0 0 0 0 0 0 127 0" result="hardAlpha"/>
<feMorphology radius="3" operator="dilate" in="SourceAlpha" result="effect2_dropShadow_6626_6600"/>
<feOffset dy="4"/>
<feGaussianBlur stdDeviation="3.5"/>
<feColorMatrix type="matrix" values="0 0 0 0 0 0 0 0 0 0 0 0 0 0 0 0 0 0 0.15 0"/>
<feBlend mode="normal" in2="effect1_dropShadow_6626_6600" result="effect2_dropShadow_6626_6600"/>
<feBlend mode="normal" in="SourceGraphic" in2="effect2_dropShadow_6626_6600" result="shape"/>
</filter>
<linearGradient id="paint0_linear_6626_6600" x1="15.4854" y1="55.3669" x2="61.2248" y2="50.4363" gradientUnits="userSpaceOnUse">
<stop stop-color="#A47AF0"/>
<stop offset="1" stop-color="#CCA6FF"/>
</linearGradient>
</defs>
</svg>
