<svg width="58" height="68" viewBox="0 0 58 68" fill="none" xmlns="http://www.w3.org/2000/svg">
<rect width="58" height="68" rx="25.3912" fill="#C4CAC2" fill-opacity="0.33"/>
<path d="M32.78 22.3333H28.237C26.179 22.3333 24.548 22.3333 23.2728 22.5059C21.9592 22.6833 20.8963 23.0566 20.0587 23.8978C19.2198 24.7389 18.8477 25.8064 18.6715 27.1248C18.5 28.4058 18.5 30.0426 18.5 32.1088V38.9198C18.5 40.6791 19.5733 42.1864 21.0982 42.8188C21.02 41.7571 21.02 40.2696 21.02 39.0306V33.1856C21.02 31.6911 21.02 30.4019 21.1577 29.3706C21.3058 28.2646 21.6395 27.2053 22.4958 26.3454C23.3522 25.4856 24.408 25.1508 25.5093 25.0014C26.536 24.8638 27.8193 24.8638 29.3092 24.8638H32.8908C34.3795 24.8638 35.6605 24.8638 36.6883 25.0014C36.3805 24.2154 35.8429 23.5404 35.1457 23.0645C34.4485 22.5886 33.6241 22.3337 32.78 22.3333Z" fill="#0B1727"/>
<path d="M22.7 33.2964C22.7 30.1161 22.7 28.5259 23.6846 27.5377C24.6681 26.5496 26.2513 26.5496 29.42 26.5496H32.78C35.9475 26.5496 37.5318 26.5496 38.5165 27.5377C39.5011 28.5259 39.5 30.1161 39.5 33.2964V38.9197C39.5 42.1001 39.5 43.6902 38.5165 44.6784C37.5318 45.6666 35.9475 45.6666 32.78 45.6666H29.42C26.2525 45.6666 24.6681 45.6666 23.6846 44.6784C22.7 43.6902 22.7 42.1001 22.7 38.9197V33.2964Z" fill="#0B1727"/>
</svg>
