<svg width="36" height="35" viewBox="0 0 36 35" fill="none" xmlns="http://www.w3.org/2000/svg">
<rect width="36" height="35" rx="17.5" fill="#FFA0C4" fill-opacity="0.33"/>
<path d="M9.66669 17.9999C9.66669 15.052 9.66669 13.5781 10.544 12.594C10.6843 12.4366 10.839 12.291 11.0062 12.159C12.0518 11.3333 13.6179 11.3333 16.75 11.3333H19.25C22.3822 11.3333 23.9483 11.3333 24.9938 12.159C25.161 12.291 25.3157 12.4366 25.456 12.594C26.3334 13.5781 26.3334 15.052 26.3334 17.9999C26.3334 20.9478 26.3334 22.4218 25.456 23.4058C25.3157 23.5633 25.161 23.7088 24.9938 23.8408C23.9483 24.6666 22.3822 24.6666 19.25 24.6666H16.75C13.6179 24.6666 12.0518 24.6666 11.0062 23.8408C10.839 23.7088 10.6843 23.5633 10.544 23.4058C9.66669 22.4218 9.66669 20.9478 9.66669 17.9999Z" fill="#0B1727" stroke="#F6D7E2" stroke-width="1.5" stroke-linecap="round" stroke-linejoin="round"/>
<path d="M16.3333 21.3333H17.5833" stroke="#F6D7E2" stroke-width="1.5" stroke-miterlimit="10" stroke-linecap="round" stroke-linejoin="round"/>
<path d="M20.0833 21.3333H23" stroke="#F6D7E2" stroke-width="1.5" stroke-miterlimit="10" stroke-linecap="round" stroke-linejoin="round"/>
<path d="M9.66669 15.5H26.3334" stroke="#F6D7E2" stroke-width="1.5" stroke-linejoin="round"/>
</svg>
