<svg width="37" height="37" viewBox="0 0 37 37" fill="none" xmlns="http://www.w3.org/2000/svg">
<path d="M33.9163 17.8322C33.9163 25.9771 27.0131 32.5808 18.4997 32.5808C17.4987 32.5822 16.5004 32.4896 15.5172 32.305C14.8094 32.172 14.4555 32.1055 14.2085 32.1433C13.9614 32.1811 13.6113 32.3671 12.9111 32.7396C10.9303 33.793 8.6206 34.165 6.3993 33.7519C7.24357 32.7134 7.82016 31.4674 8.07459 30.1317C8.22875 29.3146 7.84676 28.521 7.27463 27.9399C4.67606 25.3012 3.08301 21.7455 3.08301 17.8322C3.08301 9.68733 9.98625 3.0835 18.4997 3.0835C27.0131 3.0835 33.9163 9.68733 33.9163 17.8322Z" stroke="#F3F0E9" stroke-width="2" stroke-linejoin="round"/>
<path d="M18.4927 18.5H18.5066M24.6525 18.5H24.6663M12.333 18.5H12.3468" stroke="#F3F0E9" stroke-width="2" stroke-linecap="round" stroke-linejoin="round"/>
</svg>
