<svg width="43" height="43" viewBox="0 0 43 43" fill="none" xmlns="http://www.w3.org/2000/svg">
<path d="M29.3622 5.375L31.1591 7.1232C31.9618 7.90421 32.3631 8.29472 32.2217 8.62653C32.0805 8.95833 31.5129 8.95833 30.3777 8.95833H16.4727C9.35389 8.95833 3.58301 14.5734 3.58301 21.5C3.58301 24.1646 4.43706 26.6353 5.89336 28.6667" stroke="#193E47" stroke-width="4" stroke-linecap="round" stroke-linejoin="round"/>
<path d="M13.6374 37.6252L11.8407 35.877C11.038 35.0959 10.6366 34.7055 10.7779 34.3736C10.9192 34.0418 11.4867 34.0418 12.6219 34.0418H26.5271C33.6457 34.0418 39.4167 28.4267 39.4167 21.5002C39.4167 18.8356 38.5626 16.3649 37.1063 14.3335" stroke="#193E47" stroke-width="4" stroke-linecap="round" stroke-linejoin="round"/>
</svg>
