<svg width="37" height="37" viewBox="0 0 37 37" fill="none" xmlns="http://www.w3.org/2000/svg">
<path d="M15.0312 4.625H8.86458C7.78884 4.625 7.25097 4.625 6.81329 4.75777C5.82785 5.0567 5.0567 5.82785 4.75777 6.81329C4.625 7.25097 4.625 7.78884 4.625 8.86458C4.625 9.94033 4.625 10.4782 4.75777 10.9159C5.0567 11.9013 5.82785 12.6725 6.81329 12.9714C7.25097 13.1042 7.78884 13.1042 8.86458 13.1042H15.0312C16.107 13.1042 16.6449 13.1042 17.0826 12.9714C18.068 12.6725 18.8392 11.9013 19.1381 10.9159C19.2708 10.4782 19.2708 9.94033 19.2708 8.86458C19.2708 7.78884 19.2708 7.25097 19.1381 6.81329C18.8392 5.82785 18.068 5.0567 17.0826 4.75777C16.6449 4.625 16.107 4.625 15.0312 4.625Z" stroke="#0E0319" stroke-width="2" stroke-linejoin="round"/>
<path d="M32.3747 15.0312V8.86458C32.3747 7.78884 32.3747 7.25097 32.2419 6.81329C31.943 5.82785 31.1719 5.0567 30.1864 4.75777C29.7488 4.625 29.2109 4.625 28.1351 4.625C27.0593 4.625 26.5214 4.625 26.0837 4.75777C25.0983 5.0567 24.3272 5.82785 24.0282 6.81329C23.8955 7.25097 23.8955 7.78884 23.8955 8.86458V15.0312C23.8955 16.107 23.8955 16.6449 24.0282 17.0826C24.3272 18.068 25.0983 18.8392 26.0837 19.1381C26.5214 19.2708 27.0593 19.2708 28.1351 19.2708C29.2109 19.2708 29.7488 19.2708 30.1864 19.1381C31.1719 18.8392 31.943 18.068 32.2419 17.0826C32.3747 16.6449 32.3747 16.107 32.3747 15.0312Z" stroke="#0E0319" stroke-width="2" stroke-linejoin="round"/>
<path d="M26.0837 32.2424C26.5214 32.3752 27.0593 32.3752 28.1351 32.3752C29.2109 32.3752 29.7488 32.3752 30.1864 32.2424C31.1719 31.9435 31.943 31.1724 32.2419 30.1869C32.3747 29.7492 32.3747 29.2114 32.3747 28.1356C32.3747 27.0598 32.3747 26.5219 32.2419 26.0842C31.943 25.0988 31.1719 24.3277 30.1864 24.0287C29.7488 23.896 29.2109 23.896 28.1351 23.896C27.0593 23.896 26.5214 23.896 26.0837 24.0287C25.0983 24.3277 24.3272 25.0988 24.0282 26.0842C23.8955 26.5219 23.8955 27.0598 23.8955 28.1356C23.8955 29.2114 23.8955 29.7492 24.0282 30.1869C24.3272 31.1724 25.0983 31.9435 26.0837 32.2424Z" stroke="#0E0319" stroke-width="2" stroke-linejoin="round"/>
<path d="M13.1042 17.729H10.7917C7.88467 17.729 6.43117 17.729 5.52809 18.6321C4.625 19.5352 4.625 20.9887 4.625 23.8957V26.2082C4.625 29.1151 4.625 30.5686 5.52809 31.4717C6.43117 32.3748 7.88467 32.3748 10.7917 32.3748H13.1042C16.0111 32.3748 17.4646 32.3748 18.3677 31.4717C19.2708 30.5686 19.2708 29.1151 19.2708 26.2082V23.8957C19.2708 20.9887 19.2708 19.5352 18.3677 18.6321C17.4646 17.729 16.0111 17.729 13.1042 17.729Z" stroke="#0E0319" stroke-width="2" stroke-linejoin="round"/>
</svg>
