<svg width="37" height="37" viewBox="0 0 37 37" fill="none" xmlns="http://www.w3.org/2000/svg">
<path d="M3.08301 16.9585C6.67771 13.1935 11.783 13.0162 15.4163 16.9585M13.0963 6.93766C13.0963 9.06626 11.3682 10.7918 9.23662 10.7918C7.10498 10.7918 5.37696 9.06626 5.37696 6.93766C5.37696 4.80907 7.10498 3.0835 9.23662 3.0835C11.3682 3.0835 13.0963 4.80907 13.0963 6.93766Z" stroke="#F3F0E9" stroke-width="2" stroke-linecap="round"/>
<path d="M21.583 33.9165C25.1777 30.1514 30.2829 29.9742 33.9163 33.9165M31.5963 23.8957C31.5963 26.0242 29.8682 27.7498 27.7366 27.7498C25.6051 27.7498 23.877 26.0242 23.877 23.8957C23.877 21.7671 25.6051 20.0415 27.7366 20.0415C29.8682 20.0415 31.5963 21.7671 31.5963 23.8957Z" stroke="#F3F0E9" stroke-width="2" stroke-linecap="round"/>
<path d="M4.625 21.5835C4.625 27.5497 9.45042 32.3752 15.4167 32.3752L13.875 29.2918" stroke="#F3F0E9" stroke-width="2" stroke-linecap="round" stroke-linejoin="round"/>
<path d="M23.125 4.625H32.375M23.125 9.25H32.375M23.125 13.875H28.5208" stroke="#F3F0E9" stroke-width="2" stroke-linecap="round" stroke-linejoin="round"/>
</svg>
