<svg width="10" height="10" viewBox="0 0 10 10" fill="none" xmlns="http://www.w3.org/2000/svg">
<path d="M6.04134 3.75016C6.04134 4.32545 5.57497 4.79183 4.99967 4.79183C4.42438 4.79183 3.95801 4.32545 3.95801 3.75016C3.95801 3.17487 4.42438 2.7085 4.99967 2.7085C5.57497 2.7085 6.04134 3.17487 6.04134 3.75016Z" stroke="#F3F0E9" stroke-width="0.5"/>
<path d="M5.52359 7.28916C5.38305 7.4245 5.19522 7.50016 4.99976 7.50016C4.80426 7.50016 4.61642 7.4245 4.47588 7.28916C3.18897 6.04216 1.46434 4.64912 2.30539 2.62672C2.76013 1.53321 3.85173 0.833496 4.99976 0.833496C6.14776 0.833496 7.23934 1.53322 7.69409 2.62672C8.53409 4.64658 6.81367 6.04646 5.52359 7.28916Z" stroke="#F3F0E9" stroke-width="0.5"/>
<path d="M7.5 8.3335C7.5 8.79375 6.38071 9.16683 5 9.16683C3.61929 9.16683 2.5 8.79375 2.5 8.3335" stroke="#F3F0E9" stroke-width="0.5" stroke-linecap="round"/>
</svg>
