<svg width="21" height="21" viewBox="0 0 21 21" fill="none" xmlns="http://www.w3.org/2000/svg">
<circle cx="10.5" cy="10.5" r="10.5" fill="#193E47"/>
<path d="M9.2224 7.6333L8.92668 8.43248C8.53891 9.4804 8.34502 10.0044 7.96279 10.3866C7.58056 10.7688 7.05659 10.9627 6.00865 11.3505L5.20947 11.6462L6.00865 11.9419C7.05659 12.3297 7.58056 12.5236 7.96279 12.9058C8.34502 13.2881 8.53891 13.8121 8.92668 14.86L9.2224 15.6592L9.5181 14.86C9.90592 13.8121 10.0998 13.2881 10.482 12.9058C10.8643 12.5236 11.3882 12.3297 12.4361 11.9419L13.2353 11.6462L12.4361 11.3505C11.3882 10.9627 10.8643 10.7688 10.482 10.3866C10.0998 10.0044 9.90592 9.4804 9.5181 8.43248L9.2224 7.6333Z" stroke="#F3F0E9" stroke-width="0.5" stroke-linejoin="round"/>
<path d="M13.8087 5.34033L13.6819 5.68284C13.5158 6.13195 13.4327 6.35652 13.2688 6.52032C13.1051 6.68414 12.8805 6.76723 12.4314 6.93342L12.0889 7.06016L12.4314 7.1869C12.8805 7.35309 13.1051 7.43618 13.2688 7.6C13.4327 7.7638 13.5158 7.98837 13.6819 8.43748L13.8087 8.77999L13.9354 8.43748C14.1016 7.98837 14.1847 7.7638 14.3485 7.59999C14.5123 7.43618 14.7369 7.35309 15.186 7.1869L15.5285 7.06016L15.186 6.93342C14.7369 6.76723 14.5123 6.68414 14.3485 6.52032C14.1847 6.35652 14.1016 6.13195 13.9354 5.68284L13.8087 5.34033Z" stroke="#F3F0E9" stroke-width="0.5" stroke-linejoin="round"/>
</svg>
