<svg width="36" height="35" viewBox="0 0 36 35" fill="none" xmlns="http://www.w3.org/2000/svg">
<rect width="36" height="35" rx="17.5" fill="#F6DB52" fill-opacity="0.33"/>
<path d="M15.46 24.5936C15.8226 25.0338 16.2847 25.3891 16.8114 25.6328C17.338 25.8764 17.9154 26.002 18.5 26C19.0846 26.002 19.662 25.8764 20.1886 25.6328C20.7153 25.3891 21.1774 25.0338 21.54 24.5936C19.5225 24.8557 17.4775 24.8557 15.46 24.5936ZM24.125 15.6V16.1632C24.125 16.8392 24.325 17.5 24.7016 18.0624L25.625 19.4408C26.4674 20.7 25.8241 22.4112 24.3583 22.8088C20.5281 23.8501 16.4719 23.8501 12.6417 22.8088C11.1759 22.4112 10.5326 20.7 11.375 19.4408L12.2984 18.0624C12.6761 17.4953 12.8765 16.8362 12.8759 16.1632V15.6C12.8759 12.5072 15.3942 10 18.5 10C21.6058 10 24.125 12.5072 24.125 15.6Z" fill="#0B1727"/>
</svg>
