<svg width="50" height="50" viewBox="0 0 50 50" fill="none" xmlns="http://www.w3.org/2000/svg">
<rect width="50" height="50" rx="25" fill="#C4CAC2" fill-opacity="0.33"/>
<path fill-rule="evenodd" clip-rule="evenodd" d="M13.6667 15.6666C13.3131 15.6666 12.9739 15.8071 12.7239 16.0572C12.4738 16.3072 12.3333 16.6463 12.3333 17C12.3333 17.3536 12.4738 17.6927 12.7239 17.9428C12.9739 18.1928 13.3131 18.3333 13.6667 18.3333H36.3333C36.687 18.3333 37.0261 18.1928 37.2762 17.9428C37.5262 17.6927 37.6667 17.3536 37.6667 17C37.6667 16.6463 37.5262 16.3072 37.2762 16.0572C37.0261 15.8071 36.687 15.6666 36.3333 15.6666H13.6667ZM12.3333 25C12.3333 24.6463 12.4738 24.3072 12.7239 24.0572C12.9739 23.8071 13.3131 23.6666 13.6667 23.6666H36.3333C36.687 23.6666 37.0261 23.8071 37.2762 24.0572C37.5262 24.3072 37.6667 24.6463 37.6667 25C37.6667 25.3536 37.5262 25.6927 37.2762 25.9428C37.0261 26.1928 36.687 26.3333 36.3333 26.3333H13.6667C13.3131 26.3333 12.9739 26.1928 12.7239 25.9428C12.4738 25.6927 12.3333 25.3536 12.3333 25ZM12.3333 33.0013C12.3333 32.6477 12.4738 32.3085 12.7239 32.0585C12.9739 31.8084 13.3131 31.668 13.6667 31.668H36.3333C36.687 31.668 37.0261 31.8084 37.2762 32.0585C37.5262 32.3085 37.6667 32.6477 37.6667 33.0013C37.6667 33.3549 37.5262 33.6941 37.2762 33.9441C37.0261 34.1942 36.687 34.3346 36.3333 34.3346H13.6667C13.3131 34.3346 12.9739 34.1942 12.7239 33.9441C12.4738 33.6941 12.3333 33.3549 12.3333 33.0013Z" fill="#0B1727"/>
</svg>
